<svg width="1934" height="860" viewBox="0 0 1934 860" fill="none" xmlns="http://www.w3.org/2000/svg">
<rect width="1934" height="860" fill="white"/>
<path d="M1090.08 566.034C1067.8 572.323 1045.75 579.601 1023.21 584.715C955.087 600.174 885.956 605.615 816.212 602.477C764.307 600.142 713.095 592.991 663.34 577.398C623.085 564.782 587.31 544.663 558.467 513.355C544.952 498.685 533.299 482.672 526.551 463.687C516.638 435.801 520.18 409.306 535.75 384.295C536.163 383.632 536.796 383.107 537.615 382.197C539.711 391.174 541.1 399.872 543.776 408.154C563.511 469.225 601.546 513.444 662.66 536.132C696.959 548.865 732.756 554.712 768.871 559.023C832.552 566.624 896.19 565.299 959.843 558.357C994.506 554.576 1028.66 548.102 1063.47 540.699C1065.77 541.127 1067.39 540.986 1068.69 541.552C1075.93 544.685 1082.8 542.718 1089.64 540.268C1093.32 538.949 1096.85 537.093 1100.62 536.153C1105.08 535.04 1109.88 535.168 1114.24 533.81C1118.92 532.352 1123.45 530.108 1127.7 527.624C1131.69 525.292 1135 526.622 1138.95 527.964C1136.93 529.077 1135.43 530.015 1133.83 530.767C1130.68 532.254 1127.5 533.684 1124.3 535.054C1120.54 536.661 1116.28 537.555 1113.09 539.913C1109.89 542.281 1107.75 546.069 1104.97 549.44C1105.48 549.699 1106.64 550.291 1108.81 551.392C1106.64 552.509 1105.32 553.767 1104.01 553.764C1096.18 553.743 1091.4 557.823 1090.08 566.034Z" fill="#0B58B6"/>
<path d="M1028.85 476.917C1035.35 477.578 1041.63 478.124 1047.88 477.944C1051.18 477.849 1052.64 478.939 1053.7 481.857C1055.95 488.088 1058.48 494.219 1061.23 501.234C1056.61 501.78 1052.76 502.357 1048.89 502.668C1042.08 503.214 1035.27 503.775 1028.45 503.973C1025.23 504.067 1024.27 505.368 1023.83 508.378C1022.8 515.289 1021.42 522.155 1019.95 528.988C1019.66 530.322 1018.49 532.289 1017.42 532.504C1007.18 534.583 996.87 536.35 985.972 538.315C986.267 535.637 986.393 533.196 986.819 530.807C997.305 471.955 1007.85 413.112 1018.26 354.245C1018.88 350.749 1020.26 348.78 1023.77 348.46C1032.38 347.676 1040.99 346.902 1049.6 346.154C1053.09 345.851 1054 348.38 1054.94 351.002C1064.5 377.643 1074.16 404.251 1083.68 430.906C1092.86 456.619 1101.93 482.375 1111.03 508.119C1111.57 509.647 1111.92 511.241 1112.54 513.44C1102.27 516.196 1092.4 518.842 1082.22 521.574C1068.54 482.867 1055.01 444.563 1041.47 406.26C1040.97 406.312 1040.46 406.364 1039.96 406.416C1038.86 413.185 1037.76 419.954 1036.67 426.723C1033.99 443.315 1031.31 459.907 1028.85 476.917Z" fill="#0B58B6"/>
<path d="M787.962 467.797C789.023 459.101 790.097 450.854 791.349 441.24C799.226 441.24 807.348 441.646 815.411 441.134C824.786 440.538 833.908 438.532 841.503 432.353C849.471 425.87 852.458 417.306 850.811 407.434C849.219 397.899 842.435 392.429 833.476 391.071C823.504 389.56 813.211 388.649 803.192 389.36C791.875 390.164 783.573 387.978 778.112 377.049C775.268 371.359 770.257 366.758 766.263 361.636C765.082 360.121 764.034 358.502 762.942 356.957C763.627 356.429 763.863 356.088 764.1 356.087C791.722 356.019 819.45 353.93 846.833 359.226C861.655 362.092 874.878 367.915 882.312 382.365C888.211 393.833 887.889 405.825 885.184 417.952C880.019 441.113 866.846 457.096 843.582 463.93C842.195 464.338 840.891 465.03 839.134 465.763C852.835 490.914 869.626 513.984 880.436 540.552C869.122 540.552 858.443 541.351 848.006 540.111C844.44 539.687 840.701 534.631 838.377 530.866C826.317 511.33 814.741 491.496 802.795 471.889C802.018 470.613 799.615 470.072 797.86 469.702C794.608 469.016 791.275 468.709 787.962 467.797Z" fill="#0B58B6"/>
<path d="M1144.68 421.138C1144.78 422.501 1144.89 423.864 1144.77 425.861C1144.77 427.714 1145 428.933 1145.23 430.153C1145.27 430.529 1145.31 430.904 1145.2 431.94C1145.28 434.113 1145.51 435.625 1145.75 437.138C1145.83 438.179 1145.92 439.22 1145.79 440.882C1145.83 442.741 1146.07 443.982 1146.32 445.222C1146.52 447.241 1146.72 449.261 1146.69 451.934C1146.8 455.105 1147.15 457.622 1147.49 460.139C1147.61 461.184 1147.72 462.23 1147.61 463.974C1148.69 475.855 1149.99 487.037 1151.3 498.22C1149.01 499.402 1146.8 500.774 1144.42 501.731C1136.86 504.77 1129.24 507.654 1120.46 511.057C1117.66 455.024 1114.9 399.748 1112.11 343.949C1121.25 343.949 1130.1 343.949 1139.43 343.949C1139.73 347.618 1140.04 351.215 1140.3 354.814C1140.51 357.625 1141.54 359.294 1144.76 359.61C1160.61 361.166 1175.34 365.941 1188.48 375.239C1189.24 375.779 1191.83 375.019 1192.57 374.079C1194.7 371.343 1196.28 368.183 1198.15 365.236C1199.87 362.525 1202.28 362.144 1204.36 364.441C1208.82 369.358 1213.16 374.414 1217.1 379.743C1217.84 380.739 1216.95 383.563 1216.02 385.058C1210.69 393.673 1211.09 393.317 1216.52 401.801C1221.86 410.167 1226.4 419.1 1230.67 428.077C1232.25 431.398 1233.45 432.293 1236.92 431.177C1239.22 430.435 1243.69 429.98 1244.1 430.85C1246.11 435.118 1247.14 439.859 1248.34 444.478C1248.45 444.933 1247.42 445.775 1246.81 446.316C1234.43 457.369 1220.18 465.501 1204.8 473.145C1204.64 471.306 1204.43 469.907 1204.4 468.503C1203.58 435.642 1182.56 407.294 1151.39 397.024C1149.81 396.503 1148.27 395.867 1146.31 394.975C1145.61 394.677 1145.31 394.69 1145 394.704C1144.81 394.72 1144.62 394.737 1143.91 394.961C1143.41 395.822 1143.43 396.476 1143.46 397.13C1143.54 398.462 1143.62 399.793 1143.51 401.646C1143.44 402.501 1143.56 402.835 1143.68 403.168C1143.79 404.845 1143.9 406.522 1143.8 408.896C1143.96 413.441 1144.32 417.29 1144.68 421.138Z" fill="#0B58B6"/>
<path d="M573.989 453.069C559.497 429.243 550.271 403.655 548.452 375.677C548.322 373.673 549.521 371.137 550.903 369.543C591.202 323.075 642.983 304.539 703.35 307.666C715.286 308.284 727.196 310.236 739.004 312.246C749.143 313.972 759.118 316.66 770.706 319.27C767.5 321.382 765.549 322.684 763.582 323.961C757.715 327.768 752.001 331.856 745.888 335.217C743.588 336.481 740.203 336.809 737.572 336.278C694.092 327.502 653.623 332.873 618.428 361.921C601.766 375.673 592.508 393.747 589.678 415.721C588.335 417.105 586.848 417.983 586.735 419.013C585.911 426.488 584.811 433.999 584.892 441.487C584.965 448.275 585.564 454.895 580.876 462.314C580.124 458.496 579.999 455.06 575.957 456.12C575.957 456.12 576.039 456.088 575.96 455.893C575.73 455.392 575.501 455.163 575.194 455.012C575.194 455.012 575.101 454.993 575.072 454.662C574.691 453.911 574.34 453.49 573.989 453.069Z" fill="#0B58B6"/>
<path d="M939.061 513.746C942.435 513.565 945.809 513.384 949.69 513.652C951.445 515.553 952.541 517.182 953.979 518.411C955.689 519.872 958.544 520.612 959.32 522.365C960.036 523.979 958.654 526.522 958.063 529.274C959.9 528.188 961.602 527.182 964.03 525.746C965.113 527.673 967.161 529.694 966.783 531.027C966.21 533.053 964.204 534.978 962.33 536.233C960.797 537.259 958.574 537.59 956.644 537.634C946.079 537.874 935.507 537.852 924.946 538.18C923.963 538.211 923.037 540.059 922.085 541.063C921.907 541.127 921.73 541.192 921.076 541.159C920.6 541.061 920.173 541.035 920.173 541.035C911.689 541.004 903.206 540.926 894.722 540.962C891.195 540.977 891.214 538.847 891.461 536.275C894.507 504.608 897.546 472.941 900.534 441.268C902.974 415.4 905.514 389.539 907.59 363.642C907.984 358.739 909.819 357.429 914.2 357.295C932.846 356.722 951.491 356.061 970.127 355.237C975.885 354.983 981.615 354.114 988.397 353.42C985.481 362.85 982.883 371.725 979.871 380.456C979.453 381.666 977.046 382.747 975.46 382.907C963.206 384.145 950.94 385.343 938.65 386.101C934.469 386.359 932.945 387.534 932.746 391.887C932.251 402.696 931.307 413.492 930.231 424.262C929.839 428.188 930.791 429.863 934.93 429.466C947.685 428.242 960.452 427.15 973.214 426.005C974.34 425.904 975.465 425.789 978.013 425.544C975.244 434.088 972.877 441.927 970.038 449.591C969.596 450.784 967.056 451.679 965.392 451.862C954.483 453.063 943.562 454.253 932.613 454.943C929.196 455.158 927.91 455.992 927.763 459.404C927.549 464.389 926.892 469.354 925.912 474.55C924.625 475.547 923.384 476.208 923.163 477.116C922.505 479.819 922.23 482.616 921.84 485.381C921.247 489.581 920.241 493.784 920.226 497.989C920.21 502.531 920.736 507.17 921.785 511.586C922.488 514.542 924.961 515.885 928.061 513.829C929.472 513.714 930.883 513.6 932.842 513.926C935.28 514.16 937.171 513.953 939.061 513.746Z" fill="#0B58B6"/>
<path d="M1090.46 566.062C1091.4 557.823 1096.18 553.743 1104.01 553.764C1105.32 553.767 1106.64 552.509 1108.81 551.392C1106.64 550.291 1105.48 549.699 1104.97 549.44C1107.75 546.069 1109.89 542.281 1113.09 539.913C1116.28 537.555 1120.54 536.661 1124.3 535.054C1127.5 533.684 1130.68 532.255 1133.83 530.767C1135.43 530.015 1136.93 529.077 1138.95 527.964C1135 526.622 1131.69 525.292 1127.7 527.624C1123.45 530.108 1118.92 532.352 1114.24 533.81C1109.88 535.168 1105.08 535.04 1100.62 536.153C1096.85 537.093 1093.32 538.949 1089.64 540.268C1082.8 542.718 1075.93 544.685 1068.69 541.552C1067.39 540.986 1065.77 541.128 1063.83 540.866C1071.75 538.261 1080.1 535.608 1088.53 533.227C1134.37 520.277 1178.08 502.303 1218.5 476.97C1231.99 468.515 1244.54 458.565 1258.16 449.133C1259.19 448.5 1259.57 448.033 1259.96 447.566C1260.07 447.406 1260.19 447.245 1260.61 446.916C1260.91 446.748 1261.09 446.566 1261.09 446.566C1261.09 446.566 1261.18 446.244 1261.6 446.128C1262.34 445.634 1262.67 445.255 1263 444.876C1263 444.876 1263.01 444.967 1263.35 444.981C1264.49 444.02 1265.29 443.045 1266.09 442.069C1266.09 442.069 1266.07 442.045 1266.41 442.015C1267.07 441.525 1267.41 441.065 1267.75 440.605C1267.75 440.605 1267.86 440.856 1268.13 440.839C1270.93 438.177 1273.45 435.532 1275.97 432.887C1275.97 432.887 1276 432.978 1276.22 432.881C1276.63 432.474 1276.82 432.165 1277.01 431.855C1277.12 431.633 1277.23 431.411 1277.64 430.951C1277.95 430.713 1278.06 430.646 1278.06 430.646C1278.06 430.646 1278.18 430.276 1278.62 430.14C1279.36 429.619 1279.67 429.233 1279.98 428.848C1279.98 428.848 1279.99 428.951 1280.3 428.936C1282.46 426.757 1284.31 424.593 1286.17 422.429C1286.17 422.429 1286.19 422.157 1286.65 422.061C1288.05 420.848 1288.99 419.732 1289.92 418.615C1289.87 418.341 1289.96 418.129 1290.7 417.871C1291.4 417.39 1291.6 417.019 1291.8 416.647C1291.8 416.647 1291.8 416.841 1292.04 416.771C1292.54 416.15 1292.8 415.598 1293.06 415.046C1293.06 415.046 1293.07 415.041 1293.42 415.008C1296.91 411.911 1300.04 408.821 1303.23 405.802C1304.26 404.831 1306.02 403.061 1306.51 403.333C1311.67 406.245 1316.66 402.632 1321.7 403.195C1321.52 403.645 1321.34 404.095 1320.57 404.866C1319.39 406.52 1318.79 407.854 1318.2 409.188C1318.2 409.188 1318.15 409.109 1317.9 409.278C1317.53 409.86 1317.39 410.274 1317.26 410.687C1317.26 410.687 1317.29 410.928 1316.84 411.041C1315.64 412.523 1314.9 413.892 1314.16 415.261C1314.16 415.261 1314.15 415.677 1313.7 415.907C1312.22 418.137 1311.19 420.138 1310.15 422.138C1310.15 422.138 1310.08 422.055 1309.76 422.099C1308.34 424.145 1307.24 426.147 1306.14 428.149C1306.14 428.149 1306.09 428.068 1305.77 428.121C1305.15 428.933 1304.85 429.69 1304.54 430.448C1304.54 430.448 1304.22 430.308 1304.05 430.374C1303.63 431.036 1303.39 431.632 1303.14 432.228C1303.07 432.426 1303.01 432.624 1302.61 433.089C1302.29 433.355 1302.06 433.723 1302.06 433.723C1290.84 446.198 1280.21 459.263 1268.29 471.013C1248.93 490.082 1225.84 504.131 1202.21 517.298C1166.64 537.117 1129.51 553.343 1090.46 566.062Z" fill="#0B58B6"/>
<path d="M1256.71 376.419C1248.19 362.984 1239.87 349.859 1231.52 336.675C1242.57 335.11 1252.67 333.563 1262.81 332.405C1264 332.269 1265.9 333.993 1266.7 335.32C1276.86 352.289 1286.92 369.321 1296.92 386.385C1301.5 394.203 1301.45 394.272 1295.75 401.52C1290.84 407.764 1285.85 413.948 1281.11 419.891C1272.87 405.206 1264.89 390.967 1256.71 376.419Z" fill="#0B58B6"/>
<path d="M744.287 433.039C743.852 446.632 747.365 444.989 732.601 446.186C721.49 447.087 710.344 447.552 699.216 448.244C696.56 448.409 694.813 448.009 694.788 444.615C694.667 427.969 694.355 411.325 694.129 394.68C694.123 394.207 694.333 393.731 694.648 392.361C702.945 392.995 711.34 393.587 719.724 394.295C724.531 394.701 729.312 395.47 734.124 395.741C737.144 395.911 738.744 397.17 739.198 400.085C740.882 410.906 742.577 421.726 744.287 433.039Z" fill="#0B58B6"/>
<path d="M659.304 446.851C656.685 446.573 654.537 446.297 652.383 446.1C642.065 445.154 641.38 445.094 642.362 435.062C643.556 422.866 645.886 410.767 648.148 398.706C648.513 396.761 650.971 393.861 652.649 393.725C664.861 392.742 677.12 392.353 689.78 391.757C689.78 410.951 689.78 429.004 689.78 446.889C679.516 446.889 669.644 446.889 659.304 446.851Z" fill="#0B58B6"/>
<path d="M665.746 361.267C665.504 361 670.847 353.533 671.515 352.094C671.45 352.108 671.378 352.124 671.297 352.139C669.342 354.155 661.836 362.824 660.947 364.279C656.443 371.65 651.982 379.059 647.861 386.647C646.246 389.621 644.322 390.626 641.01 391.273C631.789 393.077 622.723 395.664 613.249 397.906C612.903 397.871 612.945 397.907 612.945 397.907C618.181 384.588 626.604 373.818 638.593 365.92C648.361 359.485 658.899 354.819 670.991 352.194C671.105 352.175 671.207 352.157 671.297 352.139C671.378 352.124 671.45 352.108 671.515 352.094C671.901 352.006 672.022 351.934 672.143 351.862L672.143 351.862L672.143 351.862C673.247 351.661 674.351 351.46 676.167 351.273C678.371 351.036 679.865 350.783 681.359 350.531L681.359 350.53C682.962 350.445 684.565 350.359 686.896 350.398C688.996 350.792 690.371 351.061 690.789 351.143L690.791 351.143V378.325C690.705 379.616 690.62 380.907 690.395 382.957C689.513 385.474 688.771 387.231 688.028 388.989H651.184L665.746 361.267Z" fill="#0B58B6"/>
<path d="M647.711 478.469C645.7 469.187 643.814 460.29 641.719 450.407C649.352 451.073 655.732 451.734 662.128 452.161C669.936 452.683 677.769 452.864 685.56 453.551C686.993 453.677 689.422 455.482 689.451 456.563C689.741 467.505 689.628 478.458 689.628 490.426C680.071 489.778 670.685 489.151 661.302 488.494C660.311 488.425 659.322 488.005 658.347 488.053C651.846 488.372 648.524 485.136 647.711 478.469Z" fill="#0B58B6"/>
<path d="M1301.89 508.079C1296.68 507.469 1290.32 508.534 1287.6 505.876C1284.97 503.3 1285.94 496.905 1285.57 492.169C1284.99 484.714 1284.52 477.248 1284.23 469.778C1284.17 468.107 1284.54 465.981 1285.55 464.777C1292.72 456.278 1300.1 447.961 1307.43 439.606C1307.73 439.268 1308.25 439.135 1309.33 438.548C1310.86 462.207 1312.36 485.471 1313.91 509.469C1309.73 508.984 1306.03 508.555 1301.89 508.079Z" fill="#0B58B6"/>
<path d="M708.958 453.477C709.449 453.391 709.94 453.305 711.058 453.507C713.134 453.606 714.584 453.417 716.033 453.228C717.423 453.04 718.814 452.853 720.888 452.666C722 452.756 722.43 452.845 723.332 452.976C724.467 453.031 725.136 453.113 725.791 453.048C736.051 452.036 736.995 454.7 737.174 464.492C737.244 468.333 738.319 472.156 738.937 475.987C738.846 476.547 738.756 477.107 738.396 478.102C738.126 478.536 738.066 478.869 738.066 478.869C736.467 487.471 735.68 488.101 724.054 488.983C718.043 489.439 712.013 489.649 705.278 489.98C704.401 490.064 704.239 490.137 704.077 490.21C702.349 490.151 700.622 490.091 698.286 489.629C696.756 486.816 695.834 484.403 694.831 481.734C694.587 480.984 694.424 480.49 694.26 479.996C694.429 472.657 694.597 465.318 695.221 457.486C696.48 455.986 697.282 454.98 698.45 453.876C699.82 453.833 700.822 453.888 702.249 453.986C704.768 453.844 706.863 453.661 708.958 453.477Z" fill="#0B58B6"/>
<path d="M616.002 401.302C624.867 399.187 633.731 397.071 642.739 394.921C640.434 411.306 638.216 427.08 635.824 444.08C627.428 442.151 618.117 440.099 608.882 437.749C607.991 437.522 606.915 435.373 607.034 434.232C608.131 423.686 609.472 413.166 611.352 402.351C613.309 401.81 614.655 401.556 616.002 401.302Z" fill="#0B58B6"/>
<path d="M1008.29 596.738C1038.95 588.194 1069.91 580.585 1100.2 570.876C1141.43 557.662 1180.67 539.639 1218.19 517.903C1235.46 507.893 1252.52 497.642 1267.47 484.251C1267.94 483.825 1268.76 483.783 1270.27 484.389C1268.61 486.126 1267.11 488.071 1265.25 489.569C1244.38 506.392 1221.8 520.614 1198.24 533.32C1168.15 549.548 1136.95 563.253 1104.61 574.357C1077.01 583.829 1048.96 591.591 1020.33 597.249C1019.21 597.472 1018.11 597.832 1016.26 598.057C1014.67 598.204 1013.83 598.422 1012.99 598.64C1012.29 598.773 1011.58 598.906 1010.19 598.991C1008.66 599.171 1007.82 599.399 1006.97 599.627C1006.26 599.76 1005.54 599.893 1004.19 599.953C1003.04 600.053 1002.52 600.226 1002 600.399C1000.63 600.604 999.263 600.81 997.364 600.789C997.282 599.878 997.731 599.193 998.179 598.509C999.192 598.335 1000.2 598.161 1001.94 598.014C1002.87 597.954 1003.07 597.867 1003.28 597.779C1003.86 597.656 1004.45 597.533 1005.6 597.54C1006.87 597.36 1007.58 597.049 1008.29 596.738Z" fill="#0B58B6"/>
<path d="M773.026 400.08C779.516 411.535 778.196 424.105 778.093 436.474C778.086 437.357 776.796 438.827 775.898 439.009C769.979 440.207 763.988 441.037 758.057 442.177C755.425 442.683 752.879 443.631 750.671 444.269C748.685 428.694 746.767 413.646 744.751 397.839C749.155 398.697 754.114 399.623 759.054 400.639C762.47 401.342 765.831 402.413 769.276 402.806C770.459 402.942 771.82 401.523 773.088 400.424C773.076 400.035 773.026 400.08 773.026 400.08Z" fill="#0B58B6"/>
<path d="M1360.94 283.265C1366.84 285.61 1372.47 287.707 1377.94 289.742C1362.07 294.216 1351.65 305.462 1345.8 322.093C1345.67 300.734 1330.87 296.994 1314.35 295.164C1336.52 289.432 1346.8 274.574 1349.96 253C1350.31 254.227 1350.68 255.448 1350.99 256.684C1351.36 258.135 1351.61 259.612 1352 261.057C1354.02 268.716 1354.81 276.868 1360.94 283.265Z" fill="#0B58B6"/>
<path d="M724.143 390.701C723.036 390.66 721.929 390.619 720.297 390.122C718.227 389.741 716.682 389.818 715.137 389.894C709.733 389.637 704.329 389.381 698.263 388.753C696.761 386.682 695.678 385.053 695.148 383.26C694.56 381.273 694.478 379.135 694.098 376.694C694.031 375.573 694.042 374.821 694.35 373.779C694.302 369.334 693.957 365.179 693.5 360.64C693.425 359.196 693.461 358.136 693.799 356.975C693.835 355.589 693.57 354.305 693.21 352.712C693.464 351.65 693.813 350.895 694.163 350.14C694.927 350.196 695.692 350.252 697.116 350.629C700.333 351.317 702.897 351.639 705.444 352.06C709.754 352.772 714.663 352.124 717.202 357.352C717.528 357.783 717.819 357.936 718.092 358.068C718.076 358.048 718.041 358.009 717.921 358.363C720.838 363.231 723.874 367.746 726.91 372.261C726.953 372.637 726.996 373.014 727.069 374.038C727.778 375.457 728.457 376.23 729.136 377.003C729.136 377.003 729.071 377.036 729.131 377.214C729.293 377.666 729.474 377.872 729.733 378.01C730.176 378.742 730.618 379.475 731.084 380.943C732.08 384.901 733.055 388.123 734.029 391.346C732.964 391.359 731.899 391.373 730.233 390.968C727.802 390.601 725.972 390.651 724.143 390.701Z" fill="#0B58B6"/>
<path d="M749.176 484.138C746.68 484.544 744.596 484.872 742.178 485.253C744.094 476.63 747.068 468.618 747.369 460.508C747.731 450.75 752.039 447.58 760.992 446.762C766.97 446.216 772.764 443.653 778.936 441.909C777.79 453.89 775.168 465.312 770.102 476.121C768.931 478.619 767.51 479.93 764.239 480.257C759.279 480.754 754.466 482.718 749.176 484.138Z" fill="#0B58B6"/>
<path d="M615.181 474.028C610.124 464.077 608.31 453.331 607.091 441.588C611.113 442.854 614.599 444.129 618.178 445.035C623.173 446.3 628.302 447.067 633.236 448.516C634.938 449.016 637.239 450.713 637.544 452.214C639.73 462.938 641.471 473.753 643.517 485.477C636.873 483.779 630.225 482.08 623.035 479.889C617.978 480.436 618.307 474.879 615.181 474.028Z" fill="#0B58B6"/>
<path d="M728.075 356.046C729.554 357.023 728.575 356.546 730.084 357.034C731.796 357.992 733.124 358.45 734.452 358.907C752.694 367.279 765.544 380.818 773.111 399.709C773.026 400.08 773.076 400.035 773.096 400.008C763.46 397.785 753.759 395.758 744.186 393.241C742.394 392.769 740.732 390.566 739.671 388.77C736.063 382.66 732.751 376.375 729.041 369.606C725.184 365.373 722.146 361.487 718.575 357.805C718.575 357.805 718.119 357.405 718.196 357.161C718.22 356.746 718.123 357.217 718.196 356.752C719.89 355.719 721.457 354.978 723.024 354.237C723.852 354.436 724.68 354.636 725.821 355.292C726.787 355.855 727.421 355.939 728.075 356.046Z" fill="#0B58B6"/>
<path d="M719.91 518.91C711.375 520.213 702.84 521.515 693.836 522.29C693.477 513.15 693.589 504.538 693.7 495.927C694.559 495.539 695.417 495.15 697.077 494.784C701.279 494.548 704.678 494.289 708.078 494.03C708.518 494.032 708.959 494.035 710.145 494.071C714.285 493.686 717.678 493.265 721.071 492.844C722.449 492.757 723.826 492.669 725.848 492.584C727.018 492.403 727.545 492.219 728.072 492.034C729.45 492.003 730.829 491.973 732.594 492.266C732.982 492.59 733.136 493.065 733.136 493.065C733.136 493.065 733.072 493.077 732.871 493.275C732.499 494.002 732.327 494.53 732.156 495.058C727.862 501.66 723.482 508.209 719.366 514.92C718.718 515.977 719.264 517.767 719.611 519.079C719.964 518.939 719.91 518.91 719.91 518.91Z" fill="#0B58B6"/>
<path d="M661.081 493.139C661.762 493.234 662.444 493.329 663.714 493.655C664.921 493.852 665.538 493.818 666.156 493.784C667.808 493.925 669.46 494.066 671.65 494.372C672.547 494.459 672.907 494.381 673.267 494.304C678.555 494.539 683.842 494.775 689.599 495.573C690.28 504.961 690.491 513.787 690.703 522.613C689.169 522.626 687.635 522.639 685.388 522.438C683.149 522.15 681.623 522.076 680.097 522.003C677.217 521.579 674.338 521.155 670.896 520.378C665.608 513.323 660.881 506.622 656.154 499.921C655.472 497.87 654.789 495.818 654.264 493.32C654.421 492.873 654.437 492.535 654.437 492.535C654.74 492.521 655.043 492.518 655.828 492.711C656.924 492.861 657.538 492.827 658.153 492.792C658.579 492.857 659.005 492.922 659.826 493.163C660.508 493.272 660.794 493.206 661.081 493.139Z" fill="#0B58B6"/>
<path d="M1321.91 402.96C1316.66 402.632 1311.67 406.245 1306.51 403.333C1306.02 403.061 1304.26 404.831 1303.23 405.802C1300.04 408.821 1296.91 411.911 1293.42 415C1300.95 405.186 1309.5 395.795 1316.57 385.401C1327.55 369.245 1337.54 352.406 1347.56 336.469C1342.25 359.079 1334.08 381.606 1321.91 402.96Z" fill="#0B58B6"/>
<path d="M576.015 456.464C579.999 455.06 580.124 458.496 580.876 462.314C585.564 454.895 584.965 448.275 584.892 441.487C584.811 433.999 585.911 426.488 586.735 419.013C586.848 417.984 588.335 417.105 589.536 416.106C589.625 422.858 588.149 429.883 589.356 436.412C591.781 449.531 595.262 462.502 599.138 475.282C600.889 481.052 604.652 486.208 607.448 491.67C607.86 492.473 607.976 493.427 608.558 495.461C595.647 483.272 584.776 470.958 576.015 456.464Z" fill="#0B58B6"/>
<path d="M922.41 541.198C923.037 540.059 923.963 538.211 924.946 538.18C935.507 537.853 946.079 537.875 956.644 537.634C958.574 537.59 960.797 537.259 962.33 536.233C964.204 534.978 966.209 533.053 966.783 531.028C967.161 529.694 965.113 527.673 964.03 525.746C961.602 527.182 959.9 528.188 958.063 529.274C958.654 526.522 960.036 523.979 959.32 522.365C958.544 520.612 955.689 519.872 953.979 518.411C952.541 517.182 951.445 515.553 950.137 513.769C958.18 513.037 966.283 512.637 975.351 512.188C973.824 519.162 972.402 525.395 971.101 531.653C969.028 541.62 969.062 541.71 958.696 541.683C946.709 541.653 934.722 541.458 922.41 541.198Z" fill="#0B58B6"/>
<path d="M615.207 474.386C618.307 474.88 617.978 480.436 622.747 479.644C621.879 479.891 620.758 479.891 619.636 479.891C619.426 480.231 619.215 480.572 619.005 480.913C620.956 482.341 622.712 484.326 624.895 485.089C630.492 487.042 636.203 488.85 642.014 489.938C645.865 490.659 648.277 492.076 649.624 495.791C650.514 498.244 652.067 500.455 653.72 503.291C657.6 507.938 661.133 512.028 664.514 516.241C665.057 516.918 664.917 518.143 665.093 519.115C652.439 513.59 639.941 507.569 630.812 496.9C624.969 490.071 620.383 482.167 615.207 474.386Z" fill="#0B58B6"/>
<path d="M719.98 518.965C725.694 510.896 731.568 502.917 736.988 494.64C738.732 491.977 740.306 490.278 743.596 489.492C751.016 487.718 758.274 485.266 765.323 483.172C759.462 497.39 739.784 513.209 720.295 518.842C719.91 518.91 719.964 518.939 719.98 518.965Z" fill="#0B58B6"/>
<path d="M597.075 556.046C571.92 543.6 551.665 525.84 537.949 500.821C554.691 522.723 574.436 541.055 598.575 555.046C598.197 555.596 597.584 555.91 597.075 556.046Z" fill="#0B58B6"/>
<path d="M739.141 475.684C738.319 472.156 737.244 468.333 737.174 464.492C736.995 454.7 736.051 452.037 725.791 453.049C725.136 453.113 724.467 453.032 723.409 452.782C723.013 452.547 723.103 452.14 723.103 452.14C729.685 451.564 736.268 450.988 743.513 450.354C743.851 458.98 741.745 467.201 739.141 475.684Z" fill="#0B58B6"/>
<path d="M927.624 513.664C924.961 515.885 922.488 514.542 921.785 511.586C920.736 507.17 920.21 502.531 920.226 497.989C920.24 493.784 921.247 489.581 921.84 485.381C922.23 482.616 922.505 479.819 923.163 477.116C923.384 476.208 924.625 475.547 925.73 474.91C926.006 477.123 925.952 479.2 925.651 481.775C925.262 482.511 925.293 482.73 925.495 482.93C925.301 486.082 925.108 489.234 924.66 492.827C924.261 493.489 924.278 493.702 924.456 493.907C924.15 498.998 923.908 504.094 923.514 509.178C923.298 511.958 923.989 513.735 927.624 513.664Z" fill="#0B58B6"/>
<path d="M1151.67 498.099C1149.99 487.038 1148.69 475.855 1147.62 464.369C1150.76 475.184 1154.03 486.257 1151.67 498.099Z" fill="#0B58B6"/>
<path d="M967.225 604.722C955.9 605.702 944.575 606.681 933.25 607.661C933.187 607.035 933.124 606.409 933.06 605.783C945.116 604.584 957.172 603.386 969.429 602.486C968.828 603.43 968.027 604.076 967.225 604.722Z" fill="#0B58B6"/>
<path d="M967.624 604.769C968.027 604.076 968.828 603.43 969.859 602.6C971.434 602.253 972.782 602.09 974.845 601.959C975.769 601.971 975.977 601.951 976.186 601.932C983.248 600.704 990.31 599.476 997.775 598.378C997.73 599.193 997.282 599.877 996.947 600.788C992.716 601.717 988.372 602.419 983.189 603.083C980.585 603.331 978.819 603.617 977.054 603.904C974.043 604.208 971.033 604.512 967.624 604.769Z" fill="#0B58B6"/>
<path d="M597.075 556.046C597.366 555.653 597.748 555.284 598.575 555.046C604.223 557.659 610.054 560.758 615.806 563.827C616.053 564.06 616.07 564.027 616.07 564.027C609.935 561.503 603.428 558.828 597.075 556.046Z" fill="#0B58B6"/>
<path d="M707.797 493.737C704.678 494.289 701.279 494.548 697.436 494.691C700.5 494.198 704.008 493.821 707.797 493.737Z" fill="#0B58B6"/>
<path d="M734.235 391.483C733.055 388.123 732.08 384.901 731.133 381.262C732.254 384.437 733.348 388.029 734.235 391.483Z" fill="#0B58B6"/>
<path d="M720.76 492.589C717.678 493.265 714.285 493.686 710.463 493.973C713.506 493.338 716.978 492.835 720.76 492.589Z" fill="#0B58B6"/>
<path d="M1275.65 432.992C1273.45 435.532 1270.93 438.177 1268.05 440.732C1270.24 438.127 1272.79 435.611 1275.65 432.992Z" fill="#0B58B6"/>
<path d="M694.912 481.991C695.834 484.403 696.756 486.816 697.865 489.532C697.311 489.907 696.57 489.978 695.278 489.908C694.727 489.768 694.264 489.696 694.264 489.696C694.268 487.757 694.271 485.817 694.349 483.292C694.481 482.396 694.644 482.157 694.912 481.991Z" fill="#0B58B6"/>
<path d="M1285.88 422.554C1284.31 424.593 1282.46 426.757 1280.25 428.923C1281.79 426.843 1283.69 424.761 1285.88 422.554Z" fill="#0B58B6"/>
<path d="M1144.83 420.696C1144.32 417.29 1143.96 413.441 1143.81 409.317C1144.33 412.779 1144.65 416.516 1144.83 420.696Z" fill="#0B58B6"/>
<path d="M1147.65 459.733C1147.15 457.622 1146.8 455.105 1146.68 452.322C1147.21 454.48 1147.51 456.903 1147.65 459.733Z" fill="#0B58B6"/>
<path d="M1310.44 421.97C1311.19 420.138 1312.22 418.137 1313.61 416.092C1312.88 417.965 1311.8 419.884 1310.44 421.97Z" fill="#0B58B6"/>
<path d="M938.653 513.595C937.171 513.953 935.28 514.16 933.242 514.088C934.811 513.687 936.528 513.566 938.653 513.595Z" fill="#0B58B6"/>
<path d="M1306.44 427.989C1307.24 426.147 1308.34 424.145 1309.81 422.129C1309.02 424.02 1307.88 425.924 1306.44 427.989Z" fill="#0B58B6"/>
<path d="M715.456 390.055C716.682 389.818 718.227 389.741 719.926 389.929C718.645 390.2 717.21 390.208 715.456 390.055Z" fill="#0B58B6"/>
<path d="M701.825 453.944C700.822 453.888 699.82 453.833 698.118 453.768C696.962 453.68 696.505 453.6 696.048 453.52C697.932 453.212 699.817 452.905 701.843 453.074C701.984 453.55 701.825 453.944 701.825 453.944Z" fill="#0B58B6"/>
<path d="M615.609 401.272C614.655 401.556 613.309 401.81 611.601 402.064C611.722 400.88 612.204 399.697 612.816 398.21C612.945 397.907 612.903 397.871 612.882 397.843C613.646 398.958 614.431 400.1 615.609 401.272Z" fill="#0B58B6"/>
<path d="M724.475 390.825C725.972 390.651 727.802 390.6 729.854 390.831C728.32 391.058 726.564 391.003 724.475 390.825Z" fill="#0B58B6"/>
<path d="M1314.47 415.139C1314.9 413.892 1315.64 412.523 1316.73 411.107C1316.31 412.38 1315.55 413.698 1314.47 415.139Z" fill="#0B58B6"/>
<path d="M695.702 453.745C696.505 453.6 696.962 453.68 697.751 453.867C697.282 454.98 696.48 455.986 695.326 457.028C695.102 456.033 695.229 455.002 695.702 453.745Z" fill="#0B58B6"/>
<path d="M1145.42 429.896C1145 428.933 1144.77 427.714 1144.77 426.271C1145.2 427.245 1145.4 428.442 1145.42 429.896Z" fill="#0B58B6"/>
<path d="M702.249 453.986C701.825 453.944 701.984 453.55 702.043 453.346C704.113 453.173 706.124 453.205 708.547 453.357C706.863 453.661 704.768 453.844 702.249 453.986Z" fill="#0B58B6"/>
<path d="M1318.47 409.035C1318.79 407.854 1319.39 406.52 1320.31 405.126C1320.01 406.338 1319.37 407.61 1318.47 409.035Z" fill="#0B58B6"/>
<path d="M1289.62 418.745C1288.99 419.732 1288.05 420.848 1286.79 422.05C1287.42 421.048 1288.37 419.961 1289.62 418.745Z" fill="#0B58B6"/>
<path d="M1146.49 444.949C1146.07 443.981 1145.83 442.741 1145.79 441.273C1146.22 442.256 1146.44 443.466 1146.49 444.949Z" fill="#0B58B6"/>
<path d="M1265.8 442.178C1265.29 443.044 1264.49 444.02 1263.3 444.965C1263.78 444.052 1264.64 443.169 1265.8 442.178Z" fill="#0B58B6"/>
<path d="M977.452 603.965C978.819 603.617 980.585 603.331 982.755 603.094C981.389 603.437 979.619 603.732 977.452 603.965Z" fill="#0B58B6"/>
<path d="M1145.88 436.762C1145.51 435.625 1145.28 434.113 1145.19 432.224C1145.56 433.36 1145.78 434.873 1145.88 436.762Z" fill="#0B58B6"/>
<path d="M680.378 522.273C681.623 522.076 683.149 522.15 685.002 522.416C683.773 522.587 682.216 522.565 680.378 522.273Z" fill="#0B58B6"/>
<path d="M694.831 481.734C694.644 482.157 694.481 482.396 694.283 482.878C693.997 482.145 693.852 481.239 693.984 480.165C694.424 480.49 694.587 480.984 694.831 481.734Z" fill="#0B58B6"/>
<path d="M715.633 453.129C714.584 453.417 713.134 453.606 711.426 453.592C712.523 453.269 713.878 453.149 715.633 453.129Z" fill="#0B58B6"/>
<path d="M729.106 376.682C728.457 376.23 727.778 375.457 727.105 374.32C727.767 374.758 728.421 375.559 729.106 376.682Z" fill="#0B58B6"/>
<path d="M1008.03 596.601C1007.58 597.049 1006.87 597.36 1005.89 597.49C1006.34 597.028 1007.05 596.745 1008.03 596.601Z" fill="#0B58B6"/>
<path d="M722.984 451.915C723.103 452.14 723.013 452.547 722.936 452.741C722.43 452.845 722 452.756 721.28 452.513C721.615 452.135 722.24 451.912 722.984 451.915Z" fill="#0B58B6"/>
<path d="M1304.79 430.289C1304.85 429.691 1305.15 428.933 1305.82 428.141C1305.8 428.782 1305.42 429.456 1304.79 430.289Z" fill="#0B58B6"/>
<path d="M727.952 491.817C727.545 492.219 727.018 492.403 726.236 492.44C726.598 492.062 727.215 491.831 727.952 491.817Z" fill="#0B58B6"/>
<path d="M1007.3 599.725C1007.82 599.399 1008.66 599.171 1009.84 599.034C1009.33 599.357 1008.48 599.59 1007.3 599.725Z" fill="#0B58B6"/>
<path d="M1013.31 598.752C1013.83 598.422 1014.67 598.204 1015.85 598.072C1015.33 598.393 1014.48 598.629 1013.31 598.752Z" fill="#0B58B6"/>
<path d="M1002.26 600.544C1002.52 600.226 1003.04 600.053 1003.82 599.963C1003.57 600.262 1003.04 600.476 1002.26 600.544Z" fill="#0B58B6"/>
<path d="M1259.67 447.665C1259.57 448.033 1259.19 448.5 1258.48 449.018C1258.57 448.633 1258.97 448.199 1259.67 447.665Z" fill="#0B58B6"/>
<path d="M732.402 494.902C732.327 494.53 732.499 494.002 732.895 493.297C732.963 493.662 732.806 494.203 732.402 494.902Z" fill="#0B58B6"/>
<path d="M657.915 492.566C657.538 492.827 656.924 492.861 656.055 492.708C656.427 492.46 657.052 492.4 657.915 492.566Z" fill="#0B58B6"/>
<path d="M665.925 493.548C665.538 493.818 664.921 493.852 664.057 493.68C664.439 493.42 665.067 493.367 665.925 493.548Z" fill="#0B58B6"/>
<path d="M1143.64 396.797C1143.43 396.476 1143.41 395.822 1143.63 395.062C1143.86 395.458 1143.84 395.961 1143.64 396.797Z" fill="#0B58B6"/>
<path d="M1267.47 440.689C1267.41 441.065 1267.07 441.525 1266.42 442.023C1266.46 441.631 1266.83 441.202 1267.47 440.689Z" fill="#0B58B6"/>
<path d="M1262.74 444.932C1262.67 445.255 1262.34 445.634 1261.76 446.084C1261.83 445.765 1262.16 445.376 1262.74 444.932Z" fill="#0B58B6"/>
<path d="M574.021 453.351C574.34 453.49 574.691 453.911 575.089 454.618C574.774 454.481 574.414 454.057 574.021 453.351Z" fill="#0B58B6"/>
<path d="M661.016 492.964C660.794 493.206 660.508 493.273 660.148 493.179C660.368 492.943 660.659 492.866 661.016 492.964Z" fill="#0B58B6"/>
<path d="M1279.73 428.91C1279.67 429.233 1279.36 429.619 1278.8 430.08C1278.86 429.761 1279.17 429.366 1279.73 428.91Z" fill="#0B58B6"/>
<path d="M1303.41 432.088C1303.39 431.633 1303.63 431.037 1304.22 430.417C1304.27 430.912 1303.97 431.43 1303.41 432.088Z" fill="#0B58B6"/>
<path d="M1292.79 415.163C1292.8 415.598 1292.54 416.15 1291.96 416.726C1291.93 416.26 1292.22 415.769 1292.79 415.163Z" fill="#0B58B6"/>
<path d="M616.037 564.07C616.331 564.218 616.641 564.357 616.951 564.496C616.742 564.426 616.534 564.356 616.198 564.157C616.07 564.027 616.053 564.06 616.037 564.07Z" fill="#0B58B6"/>
<path d="M1302.19 433.702C1302.06 433.724 1302.29 433.355 1302.36 433.28C1302.55 433.397 1302.51 433.556 1302.19 433.702Z" fill="#0B58B6"/>
<path d="M1260.99 446.543C1261.09 446.566 1260.91 446.748 1260.88 446.798C1260.84 446.847 1260.88 446.52 1260.99 446.543Z" fill="#0B58B6"/>
<path d="M1276.75 431.949C1276.82 432.165 1276.63 432.474 1276.17 432.879C1276.1 432.664 1276.29 432.353 1276.75 431.949Z" fill="#0B58B6"/>
<path d="M575.225 455.268C575.501 455.163 575.73 455.391 575.949 455.935C575.763 455.957 575.51 455.74 575.225 455.268Z" fill="#0B58B6"/>
<path d="M738.185 478.823C738.067 478.869 738.126 478.536 738.158 478.459C738.19 478.382 738.384 478.54 738.384 478.54C738.384 478.54 738.302 478.777 738.185 478.823Z" fill="#0B58B6"/>
<path d="M925.618 482.739C925.293 482.73 925.262 482.511 925.499 482.196C925.595 482.118 925.741 482.548 925.618 482.739Z" fill="#0B58B6"/>
<path d="M694.249 489.899C694.264 489.696 694.727 489.768 694.902 489.923C694.796 490.086 694.515 490.094 694.249 489.899Z" fill="#0B58B6"/>
<path d="M704.167 490.371C704.239 490.137 704.401 490.064 704.817 490.072C704.8 490.28 704.528 490.405 704.167 490.371Z" fill="#0B58B6"/>
<path d="M654.259 492.44C654.437 492.535 654.421 492.873 654.271 492.952C653.983 492.846 653.844 492.661 653.706 492.477C653.831 492.433 653.956 492.389 654.259 492.44Z" fill="#0B58B6"/>
<path d="M976.052 601.794C975.977 601.951 975.769 601.971 975.25 601.941C975.266 601.814 975.592 601.735 976.052 601.794Z" fill="#0B58B6"/>
<path d="M1003.13 597.651C1003.07 597.867 1002.87 597.954 1002.32 598C1002.32 597.813 1002.65 597.668 1003.13 597.651Z" fill="#0B58B6"/>
<path d="M920.241 541.163C920.173 541.035 920.6 541.062 920.813 541.055C921.026 541.049 920.735 541.324 920.735 541.324C920.735 541.324 920.31 541.29 920.241 541.163Z" fill="#0B58B6"/>
<path d="M733.316 492.971C733.136 493.065 732.982 492.59 733.002 492.341C733.181 492.354 733.338 492.616 733.316 492.971Z" fill="#0B58B6"/>
<path d="M924.595 493.728C924.278 493.702 924.261 493.489 924.498 493.194C924.591 493.121 924.735 493.55 924.595 493.728Z" fill="#0B58B6"/>
<path d="M1317.53 410.503C1317.39 410.274 1317.53 409.86 1317.95 409.278C1318.09 409.513 1317.94 409.916 1317.53 410.503Z" fill="#0B58B6"/>
<path d="M729.747 377.784C729.474 377.872 729.293 377.666 729.154 377.186C729.449 377.043 729.663 377.236 729.747 377.784Z" fill="#0B58B6"/>
<path d="M1145.24 394.862C1145.31 394.69 1145.61 394.677 1145.98 394.832C1145.85 395.007 1145.66 395.014 1145.24 394.862Z" fill="#0B58B6"/>
<path d="M1143.78 402.854C1143.56 402.835 1143.44 402.501 1143.48 402.045C1143.72 402.129 1143.8 402.334 1143.78 402.854Z" fill="#0B58B6"/>
<path d="M1291.5 416.754C1291.6 417.019 1291.4 417.39 1290.88 417.834C1290.77 417.557 1290.99 417.209 1291.5 416.754Z" fill="#0B58B6"/>
<path d="M672.943 494.176C672.907 494.381 672.547 494.459 672.065 494.37C672.168 494.152 672.394 494.1 672.943 494.176Z" fill="#0B58B6"/>
<path d="M1277.97 430.597C1278.06 430.646 1277.95 430.713 1277.95 430.74C1277.94 430.768 1277.87 430.548 1277.97 430.597Z" fill="#0B58B6"/>
<path d="M694.35 373.779C693.83 370.017 693.606 365.965 693.497 361.469C693.957 365.179 694.302 369.334 694.35 373.779Z" fill="#0B58B6"/>
<path d="M693.799 356.975C693.397 355.995 693.296 354.914 693.25 353.427C693.571 354.305 693.835 355.589 693.799 356.975Z" fill="#0B58B6"/>
</svg>
